<svg aria-hidden="true"
     fill="white"
	 viewBox="0 0 31.98 16.4"
	 xmlns="http://www.w3.org/2000/svg">
	<g>
		<path d="M18.91,16.4C18.91,16.4,18.91,16.4,18.91,16.4c-0.46,0-0.86-0.31-0.98-0.75L15.12,4.95l-2.81,10.56
			c-0.11,0.42-0.48,0.72-0.91,0.75c-0.43,0.03-0.83-0.22-1-0.63L7.92,9.54L7.33,11.8c-0.09,0.35-0.36,0.63-0.71,0.72
			c-0.35,0.1-0.72,0-0.98-0.26l-1.43-1.43h-3.2C0.45,10.83,0,10.38,0,9.82c0-0.56,0.45-1.01,1.01-1.01h3.62
			c0.27,0,0.52,0.11,0.71,0.3l0.48,0.48l0.91-3.5c0.11-0.42,0.48-0.72,0.91-0.75c0.43-0.03,0.84,0.22,1,0.63l2.5,6.12l3.02-11.33
			C14.27,0.31,14.67,0,15.13,0c0,0,0,0,0,0c0.46,0,0.86,0.31,0.97,0.75l2.82,10.72l1.61-5.98c0.11-0.39,0.44-0.69,0.84-0.74
			c0.4-0.05,0.8,0.14,1,0.5l2.63,4.55l0.83-0.73c0.18-0.16,0.42-0.25,0.67-0.25h4.45c0.56,0,1.01,0.45,1.01,1.01
			c0,0.56-0.45,1.01-1.01,1.01H26.9l-1.47,1.29c-0.23,0.2-0.53,0.29-0.83,0.24c-0.3-0.05-0.56-0.23-0.71-0.49l-2.03-3.51l-1.97,7.29
			C19.77,16.09,19.37,16.4,18.91,16.4z"/>
	</g>
</svg>
