<?xml version="1.0" encoding="utf-8"?>
<!-- Generator: Adobe Illustrator 27.2.0, SVG Export Plug-In . SVG Version: 6.00 Build 0)  -->
<svg version="1.1" id="Calque_1" xmlns="http://www.w3.org/2000/svg" xmlns:xlink="http://www.w3.org/1999/xlink" x="0px" y="0px"
	 viewBox="0 0 500 500" style="enable-background:new 0 0 500 500;" xml:space="preserve">
<style type="text/css">
	.st0{fill:#3C3C3B;}
	.st1{fill:#878787;}
	.st2{fill:none;stroke:#000000;stroke-width:30;stroke-linecap:round;stroke-linejoin:round;stroke-miterlimit:10;}
	.st3{fill:#E30613;}
</style>
<path class="st0" d="M1358.56,911.3l-60.04-28.29c-4.45-2.09-9.39-3.2-14.3-3.2c-4.01,0-8.02,0.77-11.78,2.18v-8.86
	c0-10.07-8.16-18.24-18.24-18.24s-18.24,8.16-18.24,18.24v25.88l-11.78,5.55l-11.78-5.55V771.52c0-10.07-8.16-18.24-18.24-18.24
	c-10.07,0-18.24,8.16-18.24,18.24v110.48c-3.76-1.41-7.77-2.18-11.78-2.18c-4.01,0-8.02,0.77-11.78,2.18v-38.14
	c0-10.07-8.16-18.24-18.24-18.24c-10.07,0-18.24,8.16-18.24,18.24v55.16l-11.78,5.55l-11.78-5.55V695.74
	c0-10.07-8.16-18.24-18.24-18.24s-18.24,8.16-18.24,18.24v186.26c-3.76-1.41-7.78-2.18-11.78-2.18c-4.01,0-8.02,0.77-11.78,2.18
	v-38.14c0-10.07-8.16-18.24-18.24-18.24c-10.07,0-18.24,8.16-18.24,18.24v55.16l-11.78,5.55l-11.78-5.55V771.52
	c0-10.07-8.16-18.24-18.24-18.24c-10.07,0-18.24,8.16-18.24,18.24v110.48c-3.76-1.41-7.78-2.18-11.78-2.18
	c-4.01,0-8.02,0.77-11.78,2.18v-8.84v-0.19c0-10.07-8.16-18.24-18.24-18.24s-18.24,8.16-18.24,18.24v0.19v16.96v8.89l-11.78,5.55
	l-45.73-21.55c-4.49-2.12-9.31-3.21-14.3-3.21c-12.93,0-24.85,7.56-30.35,19.26c-7.88,16.72-0.68,36.75,16.05,44.64l60.04,28.29
	c4.45,2.09,9.39,3.2,14.3,3.2c4.01,0,8.02-0.77,11.78-2.18v8.68v0.46c0.01,0,0.02,0,0.02,0c0.25,9.86,8.3,17.77,18.21,17.77
	c9.69,0,17.6-7.57,18.18-17.12c0.02,0,0.04,0,0.06,0v-1.12V965.5v-9.51l11.78-5.55l11.78,5.55v127c0,10.07,8.16,18.24,18.24,18.24
	c10.07,0,18.24-8.16,18.24-18.24V973.01c3.76,1.41,7.78,2.18,11.78,2.18c4.01,0,8.02-0.77,11.78-2.18v38.14
	c0,10.07,8.16,18.24,18.24,18.24c10.07,0,18.24-8.16,18.24-18.24v-55.16l11.78-5.55l11.78,5.55v203.27
	c0,10.07,8.16,18.24,18.24,18.24s18.24-8.16,18.24-18.24V973.01c3.76,1.41,7.78,2.18,11.78,2.18c4.01,0,8.02-0.77,11.78-2.18v38.14
	c0,10.07,8.16,18.24,18.24,18.24c10.07,0,18.24-8.16,18.24-18.24v-55.16l11.78-5.55l11.78,5.55v127c0,10.07,8.16,18.24,18.24,18.24
	c10.07,0,18.24-8.16,18.24-18.24V973.01c3.76,1.41,7.78,2.18,11.78,2.18c4.01,0,8.02-0.77,11.78-2.18v8.85
	c0,10.07,8.16,18.24,18.24,18.24s18.24-8.16,18.24-18.24v-25.87l11.78-5.55l45.73,21.55c4.5,2.12,9.32,3.2,14.3,3.2
	c12.93,0,24.84-7.56,30.35-19.25C1382.48,939.22,1375.28,919.19,1358.56,911.3z M1352.75,945.65c-1.6,3.4-4.98,5.39-8.5,5.39
	c-1.34,0-2.7-0.29-4-0.9l-56.03-26.4l-56.03,26.4c-1.27,0.6-2.64,0.9-4,0.9s-2.74-0.3-4-0.9l-56.03-26.4l-56.03,26.4
	c-1.27,0.6-2.64,0.9-4,0.9c-1.37,0-2.74-0.3-4-0.9l-56.03-26.4l-56.03,26.4c-1.27,0.6-2.64,0.9-4,0.9c-1.37,0-2.74-0.3-4-0.9
	l-56.03-26.4l-56.03,26.4c-1.27,0.6-2.64,0.9-4,0.9c-1.37,0-2.74-0.3-4-0.9l-60.03-28.29c-3.52-1.66-5.53-5.22-5.38-8.88
	c0.05-1.22,0.34-2.45,0.89-3.62c1.6-3.4,4.98-5.39,8.5-5.39c1.34,0,2.71,0.29,4,0.9l56.03,26.4l11.78-5.55v0l36.47-17.19v0
	l7.78-3.67c1.27-0.6,2.64-0.9,4-0.9s2.74,0.3,4,0.9l7.78,3.66v0l48.25,22.74l48.25-22.74v0l7.78-3.66c1.27-0.6,2.64-0.9,4-0.9
	c1.37,0,2.74,0.3,4,0.9l7.78,3.66v0l48.25,22.74l48.25-22.74v0l7.78-3.67c1.27-0.6,2.64-0.9,4-0.9c1.37,0,2.74,0.3,4,0.9l7.77,3.66
	v0l48.25,22.74l48.25-22.74v0l7.78-3.66c1.27-0.6,2.64-0.9,4-0.9s2.74,0.3,4,0.9l60.03,28.29c3.52,1.66,5.53,5.22,5.38,8.88
	C1353.59,943.25,1353.3,944.48,1352.75,945.65z"/>
<path d="M495.26,267.71c-1.78-8.09-6.61-15-13.58-19.45l-29.63-18.93v-53.96c0-16.57-13.43-30-30-30s-30,13.43-30,30v15.98
	c-4.04-1.86-8.44-2.83-12.94-2.83c-4.49,0-8.9,0.97-12.94,2.83v-80.93v-45.9V44.94v-7.68V30c0-16.57-13.43-30-30-30s-30,13.43-30,30
	v7.26v7.68v19.57v45.9v118.92l-12.94,8.27l-12.94-8.27v-53.96c0-16.57-13.43-30-30-30s-30,13.43-30,30v15.98
	c-4.04-1.86-8.45-2.83-12.94-2.83c-4.49,0-8.89,0.97-12.94,2.83v-84.07c0-16.57-13.43-30-30-30s-30,13.43-30,30v122.06l-12.94,8.27
	l-12.94-8.27v-8.73v-13.58c0-16.57-13.43-30-30-30c-11.57,0-21.61,6.56-26.61,16.15c-4.91-3.04-10.54-4.66-16.31-4.66
	c-10.64,0-20.41,5.35-26.14,14.31c-9.2,14.41-4.97,33.61,9.43,42.82l29.63,18.93v9.33v18.62c0,16.57,13.43,30,30,30
	c13.32,0,24.61-8.69,28.52-20.7c4.44,2.33,9.37,3.57,14.41,3.57c4.49,0,8.89-0.97,12.94-2.83v90.18c0,16.57,13.43,30,30,30
	s30-13.43,30-30V264.57l12.94-8.27l12.94,8.27v59.6c0,16.57,13.43,30,30,30s30-13.43,30-30v-21.62c4.04,1.86,8.45,2.83,12.94,2.83
	c4.49,0,8.89-0.97,12.94-2.83V470c0,16.57,13.43,30,30,30s30-13.43,30-30V264.57l12.94-8.27l12.94,8.27v59.6c0,16.57,13.43,30,30,30
	s30-13.43,30-30v-21.62c4.04,1.86,8.44,2.83,12.92,2.83c10.64,0,20.41-5.35,26.14-14.31C495.57,284.1,497.04,275.8,495.26,267.71z
	 M477.63,282.46c-2.86,4.48-7.71,6.93-12.65,6.93c-2.76,0-5.56-0.76-8.06-2.36l-77.8-49.71l-77.8,49.71
	c-2.46,1.57-5.27,2.36-8.08,2.36c-2.81,0-5.61-0.79-8.08-2.36l-77.8-49.71l-77.8,49.71c-2.46,1.57-5.27,2.36-8.08,2.36
	s-5.61-0.79-8.08-2.36l-85.88-54.87c-4.36-2.79-6.8-7.46-6.92-12.27c-0.07-2.89,0.68-5.83,2.36-8.45c2.86-4.48,7.71-6.92,12.65-6.92
	c2.76,0,5.56,0.76,8.06,2.36l4.86,3.11v0l60,38.34v0l12.94,8.27l12.94-8.27v0l60-38.34v0l4.86-3.11c2.46-1.57,5.27-2.36,8.08-2.36
	s5.61,0.79,8.08,2.36l4.86,3.11v0l60,38.34v0l12.94,8.27l12.94-8.27v0l60-38.34v0l4.86-3.11c2.46-1.57,5.27-2.36,8.08-2.36
	c2.81,0,5.61,0.79,8.08,2.36l4.86,3.11v0l60,38.34v0l21.01,13.43c4.36,2.79,6.8,7.46,6.92,12.27
	C480.06,276.9,479.3,279.84,477.63,282.46z"/>
<g>
	<path class="st1" d="M-635.08,1746.86c16.57,0,30-13.43,30-30v-148.8c0-16.57-13.43-30-30-30s-30,13.43-30,30v148.8
		C-665.08,1733.42-651.65,1746.86-635.08,1746.86z"/>
</g>
<path class="st1" d="M-820.71,1569.71c-16.57,0-30,13.43-30,30v13.58v53.3v18.62c0,16.57,13.43,30,30,30s30-13.43,30-30v-18.62
	v-53.3v-13.58C-790.71,1583.14-804.14,1569.71-820.71,1569.71z"/>
<path class="st1" d="M-542.26,1392.69c16.57,0,30,13.43,30,30v7.26v7.68v19.57v45.9v359.59c0,16.57-13.43,30-30,30s-30-13.43-30-30
	V1503.1v-45.9v-19.57v-7.68v-7.26C-572.26,1406.12-558.83,1392.69-542.26,1392.69z"/>
<g>
	<path class="st1" d="M-727.89,1815.42c16.57,0,30-13.43,30-30v-285.46c0-16.57-13.43-30-30-30s-30,13.43-30,30v285.46
		C-757.89,1801.99-744.46,1815.42-727.89,1815.42z"/>
</g>
<g>
	<path class="st1" d="M-449.44,1746.86c16.57,0,30-13.43,30-30v-148.8c0-16.57-13.43-30-30-30s-30,13.43-30,30v148.8
		C-479.44,1733.42-466.01,1746.86-449.44,1746.86z"/>
</g>
<polyline class="st2" points="-867.12,1611.53 -774.3,1667.75 -681.49,1611.53 -588.67,1667.75 -495.85,1611.53 -403.03,1667.75 "/>
<rect x="-790.71" y="1614.35" class="st3" width="32.82" height="50.58"/>
<rect x="-697.89" y="1614.35" class="st3" width="32.82" height="50.58"/>
<rect x="-605.08" y="1614.35" class="st3" width="32.82" height="50.58"/>
<rect x="-512.26" y="1614.35" class="st3" width="32.82" height="50.58"/>
<rect x="-419.44" y="1614.35" class="st3" width="32.82" height="50.58"/>
<rect x="-883.53" y="1614.35" class="st3" width="32.82" height="50.58"/>
<g>
	<path class="st1" d="M-1238.08-453.47c16.57,0,30-13.43,30-30v-148.8c0-16.57-13.43-30-30-30s-30,13.43-30,30v148.8
		C-1268.08-466.9-1254.65-453.47-1238.08-453.47z"/>
</g>
<path class="st1" d="M-1409.83-630.61c-16.57,0-30,13.43-30,30v13.58v53.3v18.62c0,16.57,13.43,30,30,30s30-13.43,30-30v-18.62
	v-53.3v-13.58C-1379.83-617.18-1393.27-630.61-1409.83-630.61z"/>
<path class="st1" d="M-1152.21-807.63c16.57,0,30,13.43,30,30v7.26v7.68v19.57v45.9v359.59c0,16.57-13.43,30-30,30s-30-13.43-30-30
	v-359.59v-45.9v-19.57v-7.68v-7.26C-1182.21-794.2-1168.78-807.63-1152.21-807.63z"/>
<g>
	<path class="st1" d="M-1323.96-384.9c16.57,0,30-13.43,30-30v-285.46c0-16.57-13.43-30-30-30s-30,13.43-30,30v285.46
		C-1353.96-398.33-1340.53-384.9-1323.96-384.9z"/>
</g>
<g>
	<path class="st1" d="M-1066.33-453.47c16.57,0,30-13.43,30-30v-148.8c0-16.57-13.43-30-30-30s-30,13.43-30,30v148.8
		C-1096.33-466.9-1082.9-453.47-1066.33-453.47z"/>
</g>
<polyline class="st2" points="-1452.77,-588.12 -1366.9,-533.25 -1281.02,-588.12 -1195.15,-533.25 -1109.27,-588.12 
	-1023.39,-533.25 "/>
<rect x="-1208.08" y="-585.97" class="st3" width="25.88" height="50.58"/>
<rect x="-1293.96" y="-585.97" class="st3" width="25.88" height="50.58"/>
<rect x="-1379.83" y="-585.97" class="st3" width="25.88" height="50.58"/>
<rect x="-1122.21" y="-585.97" class="st3" width="25.88" height="50.58"/>
<rect x="-1036.33" y="-585.97" class="st3" width="25.88" height="50.58"/>
<rect x="-1465.71" y="-585.97" class="st3" width="25.88" height="50.58"/>
</svg>
