<?xml version="1.0" standalone="no"?>
<!DOCTYPE svg PUBLIC "-//W3C//DTD SVG 20010904//EN"
 "http://www.w3.org/TR/2001/REC-SVG-20010904/DTD/svg10.dtd">
<svg version="1.0" xmlns="http://www.w3.org/2000/svg"
 width="1080.000000pt" height="1080.000000pt" viewBox="0 0 1080.000000 1080.000000"
 preserveAspectRatio="xMidYMid meet">
<metadata>
Created by potrace 1.14, written by Peter Selinger 2001-2017
</metadata>
<g transform="translate(0.000000,1080.000000) scale(0.100000,-0.100000)"
fill="#000000" stroke="none">
<path d="M5299 9911 c9 -6 -3 -11 -35 -15 -94 -14 -264 -112 -334 -192 -27
-31 -100 -139 -100 -148 0 -2 -5 -17 -12 -33 -6 -15 -12 -31 -13 -35 -2 -5 -4
-10 -5 -13 -1 -3 -4 -9 -5 -15 -1 -5 -3 -11 -5 -12 -19 -24 -21 -129 -22
-1129 0 -899 -2 -997 -16 -995 -9 2 -18 8 -20 14 -2 7 -12 12 -23 12 -10 0
-19 3 -19 8 0 9 -96 47 -160 63 -51 13 -209 18 -216 7 -3 -4 -11 -5 -19 -2 -8
3 -20 2 -27 -2 -6 -4 -26 -9 -42 -11 -17 -2 -33 -8 -37 -14 -3 -6 -9 -10 -13
-9 -11 3 -69 -22 -106 -47 -19 -13 -38 -23 -42 -23 -4 0 -8 159 -8 353 0 323
-3 428 -14 482 -34 159 -180 345 -329 419 -71 35 -193 70 -209 60 -4 -3 -8 0
-8 6 0 7 -6 8 -18 1 -11 -6 -24 -6 -34 0 -10 6 -19 6 -22 0 -3 -5 -21 -5 -40
-1 -19 4 -38 5 -41 1 -4 -3 -10 -6 -13 -7 -160 -18 -348 -143 -434 -287 -31
-52 -75 -155 -84 -197 -3 -14 -7 -315 -7 -669 -2 -438 -5 -645 -12 -648 -6 -2
-20 5 -31 14 -11 10 -26 19 -34 21 -8 2 -16 8 -18 13 -2 5 -15 9 -28 9 -13 0
-24 4 -24 8 0 25 -281 64 -314 44 -6 -3 -19 -7 -30 -8 -37 -5 -71 -11 -73 -14
-2 -1 -6 -3 -10 -4 -5 -1 -26 -11 -48 -21 -22 -10 -42 -19 -45 -19 -3 -1 -15
-7 -28 -14 -12 -7 -22 -10 -22 -7 0 4 -13 -6 -29 -22 -15 -15 -41 -40 -57 -54
-80 -71 -127 -144 -173 -264 -17 -46 -24 -89 -28 -180 -3 -66 -6 -121 -7 -122
-1 -1 -20 7 -41 17 -195 95 -491 231 -540 248 -53 18 -120 32 -205 43 -35 4
-195 1 -228 -5 -39 -7 -71 -14 -92 -21 -10 -3 -29 -8 -41 -10 -35 -7 -163 -70
-224 -110 -78 -52 -175 -149 -229 -229 -43 -64 -95 -155 -97 -173 -1 -5 -6
-19 -11 -33 -5 -14 -12 -33 -14 -42 -2 -10 -7 -28 -10 -40 -31 -117 -30 -308
2 -428 46 -172 112 -288 240 -416 101 -100 195 -156 494 -291 30 -14 107 -50
170 -80 63 -30 140 -67 170 -81 30 -14 109 -51 175 -82 225 -107 297 -139 357
-157 44 -13 93 -22 141 -26 11 -1 33 -32 60 -84 52 -101 141 -198 225 -245 21
-11 43 -25 49 -30 7 -6 13 -8 13 -4 0 4 10 0 23 -8 12 -7 40 -19 62 -26 22 -7
45 -16 50 -21 6 -4 17 -4 24 0 8 5 25 6 40 2 44 -12 203 -1 251 17 14 5 28 10
33 11 4 0 41 19 82 41 41 22 76 40 77 40 2 0 4 -278 4 -617 0 -340 4 -640 7
-668 10 -75 18 -105 30 -105 6 0 7 -3 4 -7 -4 -3 -2 -12 4 -20 6 -7 9 -13 5
-13 -5 0 6 -22 46 -90 31 -54 110 -137 170 -178 50 -34 149 -82 181 -88 12 -2
42 -8 67 -13 48 -10 208 -10 225 0 6 4 27 10 49 13 21 4 48 11 60 15 11 5 23
8 26 7 3 0 19 9 37 22 17 12 35 22 40 22 28 0 168 141 211 213 48 79 71 148
88 257 2 14 4 190 5 393 0 277 3 366 12 360 7 -3 31 -19 55 -35 23 -16 42 -26
42 -22 0 3 6 2 13 -4 16 -13 80 -31 137 -39 121 -16 330 1 330 28 0 5 7 6 15
3 8 -4 15 -1 15 6 0 6 4 9 9 6 5 -3 20 3 33 14 14 11 28 16 32 13 3 -3 6 -1 6
5 0 7 7 12 15 12 8 0 15 5 15 10 0 6 4 10 8 10 5 0 9 -451 10 -1002 0 -552 3
-1023 6 -1048 2 -25 10 -59 16 -75 6 -17 11 -31 11 -32 -1 -7 14 -44 41 -100
36 -76 130 -180 210 -235 58 -39 202 -98 240 -98 11 0 16 -4 12 -11 -4 -7 1
-7 16 1 15 8 20 8 16 1 -5 -8 15 -11 63 -11 50 0 71 4 71 13 0 8 4 7 10 -3 6
-10 10 -11 10 -2 0 6 7 12 16 12 27 0 155 49 210 81 56 32 156 123 196 179 55
77 111 231 111 308 0 17 3 32 6 32 3 0 5 448 3 995 -1 665 1 995 8 995 5 0 10
-4 10 -10 0 -10 80 -55 93 -52 4 1 7 -3 7 -8 0 -6 6 -10 13 -9 6 1 21 -1 32
-5 11 -4 31 -12 45 -17 57 -21 306 -13 352 12 10 5 18 7 18 4 0 -6 98 42 118
58 8 6 21 12 30 14 16 2 17 -30 16 -375 -1 -410 2 -434 60 -566 54 -121 179
-250 296 -303 81 -37 172 -64 163 -49 -5 8 -2 8 8 0 15 -12 209 -16 209 -4 0
4 10 7 23 7 78 -1 217 75 316 173 45 44 81 86 81 93 0 7 8 22 18 33 9 10 28
51 41 89 12 39 25 77 28 85 12 31 13 80 15 693 0 345 5 627 10 627 4 0 8 -4 8
-8 0 -5 16 -14 35 -22 19 -8 35 -18 35 -24 0 -5 3 -6 6 -3 4 3 16 1 28 -5 11
-7 24 -11 29 -10 4 1 7 -3 7 -8 0 -5 3 -9 8 -8 4 0 14 -1 22 -5 20 -7 68 -17
100 -21 14 -1 30 -5 36 -9 6 -3 14 -4 17 -1 2 3 38 7 78 8 41 2 85 7 99 11 14
4 33 7 43 7 9 -1 17 3 17 8 0 7 21 18 50 25 25 7 116 60 141 83 8 7 27 23 42
37 15 14 26 25 24 25 -3 0 11 17 30 38 44 48 100 161 122 248 10 41 17 105 16
157 0 48 3 87 6 87 7 0 138 -61 294 -136 55 -26 102 -48 105 -49 3 -1 34 -15
70 -32 237 -111 463 -127 690 -47 73 26 170 70 180 83 3 3 25 19 48 34 43 28
149 128 187 178 34 44 44 61 90 154 63 130 88 234 89 375 0 162 -24 267 -97
420 -45 96 -187 256 -280 317 -76 50 -81 53 -127 75 -25 11 -92 43 -150 70
-180 86 -215 102 -220 103 -3 1 -57 26 -120 57 -63 31 -137 66 -165 78 -27 12
-117 55 -200 95 -197 95 -295 130 -397 141 -10 1 -22 2 -26 3 -5 0 -17 20 -28
44 -73 165 -188 276 -351 337 -18 7 -35 11 -39 10 -4 -1 -10 3 -13 9 -7 11
-98 24 -166 24 -104 0 -216 -24 -252 -54 -7 -6 -13 -8 -13 -5 0 8 -76 -31
-101 -52 -15 -12 -17 38 -17 630 -1 640 -2 671 -15 684 -4 4 -7 19 -7 34 0 15
-3 30 -7 34 -5 4 -8 11 -8 14 0 4 -16 36 -34 72 -39 76 -81 133 -130 175 -19
17 -42 37 -51 45 -22 21 -155 90 -174 90 -9 0 -16 3 -16 8 0 4 -15 8 -33 9
-42 3 -59 7 -73 16 -6 3 -14 4 -17 0 -10 -9 -77 -9 -77 0 0 5 -4 6 -9 2 -6 -3
-31 -7 -58 -10 -40 -3 -91 -14 -138 -29 -66 -21 -172 -93 -234 -159 -59 -63
-72 -82 -107 -152 -64 -130 -67 -157 -69 -583 -1 -210 -5 -385 -8 -389 -4 -3
-15 1 -24 9 -26 22 -143 76 -178 82 -17 2 -30 5 -30 6 0 1 -9 4 -20 6 -32 7
-205 10 -205 3 0 -3 -13 -6 -29 -7 -17 0 -39 -6 -50 -12 -12 -6 -21 -8 -21 -4
0 3 -6 1 -13 -5 -8 -6 -17 -8 -20 -4 -4 3 -7 0 -7 -7 0 -7 -3 -11 -6 -7 -3 3
-31 -8 -61 -24 -30 -17 -59 -29 -64 -27 -5 2 -9 427 -9 1014 0 556 -4 1014 -8
1018 -4 4 -8 20 -8 34 -1 15 -3 27 -4 27 -2 0 -11 37 -12 53 -1 6 -5 12 -10
12 -4 0 -7 3 -6 8 2 9 -10 40 -28 75 -8 15 -13 27 -10 27 8 0 -12 23 -102 118
-43 45 -82 82 -85 82 -4 0 -28 13 -54 29 -47 29 -122 59 -171 67 -14 3 -33 9
-43 14 -23 13 -38 13 -19 0 9 -6 10 -10 3 -10 -6 0 -15 5 -18 10 -10 16 -138
13 -129 -2 6 -10 4 -10 -7 0 -7 6 -18 12 -23 12 -6 0 -5 -4 3 -9z"/>
</g>
</svg>
