<?xml version="1.0" standalone="no"?>
<!DOCTYPE svg PUBLIC "-//W3C//DTD SVG 20010904//EN"
 "http://www.w3.org/TR/2001/REC-SVG-20010904/DTD/svg10.dtd">
<svg version="1.0" xmlns="http://www.w3.org/2000/svg"
 width="1080.000000pt" height="1080.000000pt" viewBox="0 0 1080.000000 1080.000000"
 preserveAspectRatio="xMidYMid meet">
<metadata>
Created by potrace 1.14, written by Peter Selinger 2001-2017
</metadata>
<g transform="translate(0.000000,1080.000000) scale(0.100000,-0.100000)"
fill="#000000" stroke="none">
<path d="M1725 10785 c-477 -65 -945 -322 -1251 -688 -203 -241 -354 -540
-423 -834 -53 -229 -51 -16 -51 -3860 0 -3168 2 -3575 16 -3674 52 -378 207
-725 453 -1021 264 -315 642 -551 1049 -652 218 -54 -29 -51 3882 -51 3911 0
3664 -3 3882 51 719 179 1288 751 1464 1469 57 235 54 17 54 3875 0 3894 4
3648 -59 3892 -40 152 -72 240 -141 384 -288 597 -875 1022 -1534 1109 -94 13
-612 15 -3680 14 -2771 -1 -3591 -4 -3661 -14z m3518 -2373 c56 -25 133 -94
157 -143 11 -20 37 -105 59 -190 22 -85 54 -206 71 -269 17 -63 51 -191 75
-285 24 -93 64 -244 89 -335 48 -180 142 -542 207 -795 22 -88 45 -169 49
-180 5 -11 68 -249 140 -530 73 -280 141 -541 152 -580 11 -38 41 -152 68
-253 26 -101 50 -185 53 -188 2 -3 14 26 25 63 22 74 27 93 202 743 266 995
321 1193 340 1230 24 47 101 116 160 143 67 31 196 30 268 -2 80 -36 133 -104
276 -352 71 -123 156 -268 188 -322 32 -53 58 -99 58 -101 0 -2 30 -55 67
-117 36 -63 89 -154 118 -204 28 -49 82 -141 118 -203 37 -62 67 -115 67 -117
0 -3 30 -54 66 -115 59 -98 69 -109 83 -97 9 8 76 67 150 132 82 72 156 128
190 144 l56 26 820 0 820 0 67 -33 c214 -105 249 -390 67 -545 -23 -20 -67
-46 -96 -57 -52 -19 -77 -20 -759 -20 l-704 0 -123 -108 c-67 -59 -185 -164
-262 -231 -169 -149 -216 -175 -325 -175 -61 0 -87 6 -137 29 -99 44 -131 87
-343 460 -70 122 -99 173 -320 555 -84 146 -155 267 -157 269 -8 11 -19 -24
-83 -261 -152 -559 -222 -823 -275 -1018 -91 -340 -102 -381 -133 -490 -16
-58 -49 -177 -72 -265 -24 -88 -57 -214 -75 -280 -36 -136 -51 -170 -102 -226
-124 -138 -368 -136 -487 2 -53 63 -69 104 -125 319 -28 107 -92 350 -141 540
-50 190 -149 568 -220 840 -72 272 -139 529 -151 570 -25 92 -119 447 -199
755 -52 203 -76 293 -136 515 -9 30 -20 73 -26 95 l-11 40 -9 -30 c-21 -73
-89 -326 -209 -780 -71 -269 -143 -539 -160 -600 -29 -108 -141 -527 -278
-1045 -38 -146 -88 -330 -109 -410 -22 -80 -70 -260 -107 -400 -37 -140 -78
-276 -90 -301 -28 -55 -91 -114 -154 -143 -67 -31 -206 -30 -278 3 -58 26
-130 97 -158 156 -10 22 -79 189 -153 370 -74 182 -204 501 -289 710 -85 209
-164 403 -175 430 -11 28 -26 64 -33 80 -8 17 -48 115 -90 219 -94 235 -91
229 -104 193 -6 -16 -11 -32 -11 -37 0 -29 -174 -683 -193 -724 -36 -81 -70
-119 -135 -154 -111 -59 -222 -62 -327 -10 -23 12 -149 129 -300 279 l-260
258 -575 3 -575 3 -52 27 c-115 61 -178 163 -178 288 0 41 6 94 13 117 16 53
65 117 120 160 85 64 78 64 813 61 l664 -3 59 -28 c42 -19 88 -56 157 -124 66
-64 100 -91 103 -82 3 8 37 140 76 294 245 960 232 920 307 999 73 77 210 114
321 86 61 -15 134 -62 173 -111 18 -23 74 -146 136 -296 58 -142 124 -305 148
-363 23 -58 90 -222 148 -365 58 -143 123 -303 145 -355 22 -52 92 -225 156
-384 64 -159 123 -300 130 -315 l14 -25 11 39 c11 39 55 203 147 545 24 91 96
361 159 600 64 239 134 503 156 585 22 83 94 353 159 600 66 248 135 506 154
575 18 69 66 249 106 400 129 494 127 490 203 559 75 69 143 93 244 87 41 -3
90 -13 116 -24z"/>
</g>
</svg>
