<?xml version="1.0" standalone="no"?>
<!DOCTYPE svg PUBLIC "-//W3C//DTD SVG 20010904//EN"
 "http://www.w3.org/TR/2001/REC-SVG-20010904/DTD/svg10.dtd">
<svg version="1.0" xmlns="http://www.w3.org/2000/svg"
 width="1080.000000pt" height="1080.000000pt" viewBox="0 0 1080.000000 1080.000000"
 preserveAspectRatio="xMidYMid meet">
<metadata>
Created by potrace 1.14, written by Peter Selinger 2001-2017
</metadata>
<g transform="translate(0.000000,1080.000000) scale(0.100000,-0.100000)"
fill="#000000" stroke="none">
<path d="M1849 10796 c-2 -2 -35 -6 -74 -10 -75 -6 -115 -13 -195 -31 -14 -3
-38 -8 -55 -11 -36 -6 -223 -68 -280 -92 -470 -198 -836 -546 -1052 -999 -45
-94 -116 -283 -128 -342 -38 -177 -39 -184 -52 -286 -10 -75 -11 -7158 -1
-7240 15 -124 20 -153 53 -283 47 -185 119 -358 221 -532 33 -56 117 -179 141
-205 10 -11 31 -36 47 -55 260 -319 674 -569 1096 -663 195 -44 46 -42 3805
-42 1964 0 3602 3 3640 7 427 45 859 247 1169 546 175 169 313 360 426 592 15
30 31 66 35 80 4 14 11 30 15 35 7 9 66 185 75 225 14 59 46 229 52 281 10 81
11 7187 1 7254 -4 28 -10 70 -14 95 -9 68 -59 265 -89 350 -60 169 -228 472
-317 571 -12 15 -39 46 -59 70 -46 54 -169 175 -229 224 -25 20 -54 44 -65 54
-58 49 -342 221 -364 221 -4 0 -26 9 -49 20 -118 57 -368 132 -487 145 -33 4
-82 11 -110 16 -47 7 -7147 13 -7156 5z"/>
</g>
</svg>
