<?xml version="1.0" encoding="utf-8"?>
<!-- Generator: Adobe Illustrator 27.1.1, SVG Export Plug-In . SVG Version: 6.00 Build 0)  -->
<svg version="1.1" id="Calque_1" xmlns="http://www.w3.org/2000/svg" xmlns:xlink="http://www.w3.org/1999/xlink" x="0px" y="0px"
	 viewBox="0 0 500 500" style="enable-background:new 0 0 500 500;" xml:space="preserve">
<style type="text/css">
	.st0{fill:#3C3C3B;}
</style>
<path class="st0" d="M484.09,236.64l-49.42-23.29c-3.66-1.72-7.73-2.63-11.77-2.63c-3.3,0-6.6,0.64-9.7,1.8v-7.29
	c0-8.29-6.72-15.01-15.01-15.01c-8.29,0-15.01,6.72-15.01,15.01v21.3l-9.7,4.57l-9.7-4.57V121.58c0-8.29-6.72-15.01-15.01-15.01
	c-8.29,0-15.01,6.72-15.01,15.01v90.93c-3.1-1.16-6.4-1.79-9.7-1.79c-3.3,0-6.6,0.64-9.7,1.8v-31.39c0-8.29-6.72-15.01-15.01-15.01
	s-15.01,6.72-15.01,15.01v45.4l-9.7,4.57l-9.7-4.57V59.21c0-8.29-6.72-15.01-15.01-15.01c-8.29,0-15.01,6.72-15.01,15.01v153.3
	c-3.1-1.16-6.4-1.8-9.7-1.8c-3.3,0-6.6,0.64-9.7,1.8v-31.39c0-8.29-6.72-15.01-15.01-15.01c-8.29,0-15.01,6.72-15.01,15.01v45.4
	l-9.7,4.57l-9.7-4.57V121.58c0-8.29-6.72-15.01-15.01-15.01c-8.29,0-15.01,6.72-15.01,15.01v90.93c-3.1-1.16-6.4-1.8-9.7-1.8
	c-3.3,0-6.6,0.64-9.7,1.8v-7.27v-0.16c0-8.29-6.72-15.01-15.01-15.01s-15.01,6.72-15.01,15.01v0.16v13.96v7.32l-9.7,4.57
	l-37.64-17.74c-3.7-1.75-7.66-2.64-11.77-2.64c-10.64,0-20.45,6.22-24.98,15.85c-6.49,13.76-0.56,30.25,13.21,36.74l49.41,23.29
	c3.66,1.72,7.73,2.63,11.77,2.63c3.3,0,6.6-0.64,9.7-1.79v7.15v0.38c0.01,0,0.01,0,0.02,0c0.2,8.11,6.83,14.63,14.99,14.63
	c7.98,0,14.48-6.23,14.96-14.09c0.02,0,0.03,0,0.05,0v-0.92v-13.33v-7.83l9.7-4.57l9.7,4.57v104.53c0,8.29,6.72,15.01,15.01,15.01
	c8.29,0,15.01-6.72,15.01-15.01v-90.52c3.1,1.16,6.4,1.8,9.7,1.8c3.3,0,6.6-0.64,9.7-1.8v31.39c0,8.29,6.72,15.01,15.01,15.01
	c8.29,0,15.01-6.72,15.01-15.01v-45.4l9.7-4.57l9.7,4.57v167.31c0,8.29,6.72,15.01,15.01,15.01c8.29,0,15.01-6.72,15.01-15.01
	v-153.3c3.1,1.16,6.4,1.8,9.7,1.8c3.3,0,6.6-0.64,9.7-1.79v31.39c0,8.29,6.72,15.01,15.01,15.01s15.01-6.72,15.01-15.01v-45.4
	l9.7-4.57l9.7,4.57v104.53c0,8.29,6.72,15.01,15.01,15.01c8.29,0,15.01-6.72,15.01-15.01v-90.52c3.1,1.16,6.4,1.8,9.7,1.8
	c3.3,0,6.6-0.64,9.7-1.79v7.29c0,8.29,6.72,15.01,15.01,15.01c8.29,0,15.01-6.72,15.01-15.01v-21.29l9.7-4.57l37.64,17.74
	c3.71,1.75,7.67,2.64,11.77,2.64c10.64,0,20.45-6.22,24.98-15.85C503.79,259.62,497.86,243.13,484.09,236.64z M479.31,264.91
	c-1.32,2.8-4.1,4.44-7,4.44c-1.1,0-2.23-0.24-3.29-0.74l-46.12-21.73l-46.12,21.73c-1.04,0.49-2.17,0.74-3.3,0.74
	c-1.13,0-2.25-0.25-3.3-0.74l-46.12-21.73l-46.12,21.73c-1.04,0.49-2.17,0.74-3.3,0.74s-2.25-0.25-3.3-0.74l-46.12-21.73
	l-46.12,21.73c-1.04,0.49-2.17,0.74-3.3,0.74s-2.25-0.25-3.3-0.74l-46.12-21.73l-46.12,21.73c-1.04,0.49-2.17,0.74-3.3,0.74
	s-2.25-0.25-3.3-0.74l-49.41-23.28c-2.9-1.37-4.55-4.3-4.43-7.31c0.04-1,0.28-2.02,0.73-2.98c1.32-2.8,4.1-4.44,7-4.44
	c1.1,0,2.23,0.24,3.29,0.74l46.12,21.73l9.7-4.57v0l30.02-14.15v0l6.4-3.02c1.04-0.49,2.17-0.74,3.29-0.74s2.25,0.25,3.3,0.74
	l6.4,3.02v0l39.72,18.72l39.72-18.72v0l6.4-3.02c1.04-0.49,2.17-0.74,3.3-0.74s2.25,0.25,3.3,0.74l6.4,3.02v0l39.72,18.72
	l39.71-18.71v0l6.4-3.02c1.04-0.49,2.17-0.74,3.3-0.74c1.13,0,2.25,0.25,3.3,0.74l6.4,3.02v0l39.72,18.72l39.71-18.71v0l6.4-3.02
	c1.04-0.49,2.17-0.74,3.3-0.74s2.25,0.25,3.3,0.74l49.41,23.28c2.9,1.37,4.55,4.3,4.43,7.31
	C480.01,262.93,479.77,263.95,479.31,264.91z"/>
</svg>
